<svg width="1000" height="176" viewBox="0 0 1000 176" fill="none" xmlns="http://www.w3.org/2000/svg">
<path d="M798.658 2.97107V172.748H763.84L696.278 74.7613H695.2V172.748H654.165V2.97107H689.48L756.296 100.791H757.706V2.97107H798.658Z" fill="white"/>
<path d="M628.404 2.97107V172.748H587.37V2.97107H628.404Z" fill="white"/>
<path d="M519.828 58.4303C518.888 54.9485 517.507 51.8813 515.683 49.2285C513.859 46.5205 511.621 44.227 508.968 42.3479C506.315 40.4689 503.276 39.0596 499.849 38.1201C496.423 37.1253 492.665 36.6279 488.575 36.6279C480.341 36.6279 473.211 38.6175 467.187 42.5966C461.219 46.5758 456.604 52.3787 453.343 60.0054C450.082 67.5768 448.452 76.7785 448.452 87.6106C448.452 98.498 450.027 107.783 453.177 115.465C456.328 123.147 460.887 129.005 466.856 133.039C472.824 137.073 480.064 139.091 488.575 139.091C496.091 139.091 502.447 137.875 507.642 135.443C512.892 132.956 516.871 129.447 519.579 124.915C522.287 120.383 523.641 115.05 523.641 108.916L531.268 109.827H489.984V79.901H563.184V102.367C563.184 117.565 559.951 130.58 553.485 141.412C547.074 152.244 538.231 160.561 526.957 166.364C515.738 172.167 502.834 175.069 488.244 175.069C472.051 175.069 457.82 171.559 445.551 164.541C433.282 157.522 423.721 147.519 416.868 134.531C410.015 121.489 406.588 106.014 406.588 88.108C406.588 74.181 408.661 61.8291 412.806 51.0523C416.951 40.2202 422.726 31.0461 430.132 23.5299C437.592 16.0138 446.214 10.3214 455.996 6.45281C465.833 2.5842 476.417 0.649902 487.746 0.649902C497.583 0.649902 506.73 2.05918 515.186 4.87774C523.697 7.69629 531.213 11.6754 537.734 16.8151C544.311 21.9549 549.644 28.0617 553.733 35.1358C557.823 42.2098 560.365 49.9746 561.36 58.4303H519.828Z" fill="white"/>
<path d="M382.651 2.97107V172.748H341.616V2.97107H382.651Z" fill="white"/>
<path d="M187.052 172.748V2.97107H257.184C269.895 2.97107 280.866 5.2646 290.095 9.85166C299.38 14.3835 306.537 20.9048 311.566 29.4157C316.595 37.8714 319.109 47.9021 319.109 59.508C319.109 71.2796 316.54 81.2827 311.4 89.5173C306.26 97.6966 298.965 103.942 289.515 108.252C280.064 112.508 268.873 114.636 255.941 114.636H211.59V82.3051H248.314C254.504 82.3051 259.671 81.5037 263.816 79.901C268.016 78.2431 271.194 75.7561 273.349 72.4402C275.505 69.0689 276.582 64.7582 276.582 59.508C276.582 54.2577 275.505 49.9194 273.349 46.4929C271.194 43.0111 268.016 40.4136 263.816 38.7004C259.616 36.9319 254.449 36.0476 248.314 36.0476H228.087V172.748H187.052ZM282.634 95.1544L324.912 172.748H280.147L238.698 95.1544H282.634Z" fill="white"/>
<path d="M163.094 87.8593C163.094 106.539 159.502 122.373 152.317 135.36C145.133 148.348 135.406 158.213 123.137 164.955C110.923 171.697 97.2173 175.069 82.0192 175.069C66.7659 175.069 53.0323 171.67 40.8186 164.872C28.6048 158.074 18.9057 148.21 11.7211 135.277C4.59183 122.29 1.02719 106.484 1.02719 87.8593C1.02719 69.1795 4.59183 53.3458 11.7211 40.3584C18.9057 27.3709 28.6048 17.506 40.8186 10.7635C53.0323 4.02112 66.7659 0.649902 82.0192 0.649902C97.2173 0.649902 110.923 4.02112 123.137 10.7635C135.406 17.506 145.133 27.3709 152.317 40.3584C159.502 53.3458 163.094 69.1795 163.094 87.8593ZM121.147 87.8593C121.147 76.8061 119.572 67.4662 116.422 59.8396C113.327 52.2129 108.851 46.4376 102.993 42.5137C97.1897 38.5899 90.1985 36.6279 82.0192 36.6279C73.8951 36.6279 66.904 38.5899 61.0458 42.5137C55.1877 46.4376 50.6835 52.2129 47.5334 59.8396C44.4385 67.4662 42.891 76.8061 42.891 87.8593C42.891 98.9125 44.4385 108.252 47.5334 115.879C50.6835 123.506 55.1877 129.281 61.0458 133.205C66.904 137.129 73.8951 139.091 82.0192 139.091C90.1985 139.091 97.1897 137.129 102.993 133.205C108.851 129.281 113.327 123.506 116.422 115.879C119.572 108.252 121.147 98.9125 121.147 87.8593Z" fill="white"/>
<path d="M890.51 175L894.834 119.115L848.915 150.984L827 112.016L876.794 88L827 63.9844L848.915 25.0156L894.834 56.8854L890.51 1H934.49L930.167 56.8854L976.085 25.0156L998 63.9844L948.206 88L998 112.016L976.085 150.984L930.167 119.115L934.49 175H890.51Z" fill="white"/>
</svg>
